<mxfile host="app.diagrams.net" modified="2023-11-13T15:34:30.695Z" agent="Mozilla/5.0 (Macintosh; Intel Mac OS X 10_15_7) AppleWebKit/605.1.15 (KHTML, like Gecko) Version/16.5 Safari/605.1.15" version="22.1.0" etag="dsKmxlNa1x_L54N6Llxx" type="github">
  <diagram name="Page-1" id="VqXEa4rQDozrWuivW58N">
    <mxGraphModel>
      <root>
        <mxCell id="0" />
        <mxCell id="1" parent="0" />
      </root>
    </mxGraphModel>
  </diagram>
</mxfile>
